<?xml version="1.0" encoding="UTF-8"?><svg xmlns="http://www.w3.org/2000/svg" width="100%" height="100%"><defs><font id="web" horiz-adv-x="1094"><!--



NOTICE: This font software is the valuable property 
of Monotype Imaging and/or its suppliers and its use 
by you is covered under the terms of the Web Font license 
agreement between you and Monotype Imaging. You may 
ONLY use this font software with the licensed web site. 
Except as specifically permitted by the license, you 
may not copy this font software. If you have any questions, 
please contact Monotype Imaging. 

For more information, please visit http://www.ascenderfonts.com/info/webfont-eula.aspx

Licensed to: microsoft.com

Serial number: SH-298
--><font-face font-family="" units-per-em="2048" panose-1="2 11 4 2 4 2 4 2 2 3" ascent="2210" descent="-514" alphabetic="0"/><missing-glyph horiz-adv-x="1322" d="M166 0V1398H1156V0H166ZM314 148H1008V1250H314V148Z"/><glyph unicode="&#13;" horiz-adv-x="0"/><glyph unicode=" " horiz-adv-x="561"/><glyph unicode="!" horiz-adv-x="582" d="M344 403H233L219 1434H358L344 403ZM291 -18Q251 -18 223 9T195 77Q195 118 223 145T291 173Q310 173 327 166T357 146T379 116T387 77Q387 57 379 40T358 9T327 -11T291 -18Z"/><glyph unicode="&quot;" horiz-adv-x="744" d="M575 986H460V1434H575V986ZM285 986H170V1434H285V986Z"/><glyph unicode="#" horiz-adv-x="1223" d="M1138 936H872L802 613H1085L1063 521H784L697 123H594L680 521H421L336 123H233L318 521H46L65 613H338L406 936H121L141 1028H425L511 1434H614L528 1028H788L875 1434H977L890 1028H1159L1138 936ZM510 936L439 613H700L770 936H510Z"/><glyph unicode="$" horiz-adv-x="1079" d="M591 -209H500V0Q301 0 164 83V221Q197 196 237 176T321 142T411 120T500 112V667Q439 701 379 735T270 815T192 920T162 1065Q162 1139 187 1202T257 1313T364 1392T500 1434V1615H591V1437Q679 1435 745 1420T857 1382V1251Q752 1321 591 1324V756Q689 707 755 661T861 569T918 472T935 363Q935 293 912 233T844 127T736 49T591 6V-209ZM500 1320Q405 1302 350 1239T294 1081Q294 1037 303 1002T336 934T399 872T500 807V1320ZM591 117Q697 137 750 196T803 347Q803 387 792 422T755 489T690 553T591 617V117Z"/><glyph unicode="%" horiz-adv-x="1641" d="M410 722Q334 722 273 748T170 821T105 935T82 1082Q82 1171 107 1241T177 1359T285 1433T425 1459Q500 1459 560 1434T662 1362T726 1248T749 1094Q749 1013 725 945T656 828T550 750T410 722ZM421 1363Q369 1363 327 1344T255 1290T210 1203T194 1086Q194 961 252 889T416 817Q469 817 510 836T579 892T622 979T637 1093Q637 1224 579 1293T421 1363ZM431 -21H310L1201 1433H1321L431 -21ZM1229 -23Q1154 -23 1093 3T990 76T924 189T901 337Q901 425 926 495T996 614T1104 689T1244 715Q1319 715 1379 690T1481 618T1545 503T1568 348Q1568 267 1544 199T1475 82T1369 5T1229 -23ZM1240 617Q1188 617 1146 598T1075 544T1029 457T1013 340Q1013 278 1028 228T1072 144T1142 91T1235 72Q1287 72 1328 91T1397 146T1441 233T1457 348Q1457 480 1399 548T1240 617Z"/><glyph unicode="&amp;" horiz-adv-x="1436" d="M1228 0L1054 173Q857 -25 580 -25Q476 -25 393 3T251 83T161 206T130 361Q130 625 459 783Q301 977 301 1123Q301 1195 328 1256T404 1362T519 1432T666 1458Q740 1458 800 1436T902 1375T967 1282T990 1164Q990 1096 972 1041T914 937T811 845T656 759Q746 664 847 563T1064 350Q1091 390 1113 438T1152 540T1177 648T1188 758H1311Q1306 487 1142 266Q1196 213 1263 148T1414 -1L1228 0ZM579 838Q655 873 708 908T796 982T846 1062T862 1151Q862 1195 847 1231T804 1294T741 1335T663 1350Q610 1350 567 1333T494 1286T448 1213T431 1122Q431 1004 579 838ZM977 253Q858 370 750 480T538 700Q394 632 328 553T262 368Q262 305 285 253T351 165T452 108T584 87Q810 87 977 253Z"/><glyph unicode="'" horiz-adv-x="454" d="M285 986H170V1434H285V986Z"/><glyph unicode="(" horiz-adv-x="598" d="M451 -326Q145 28 145 546Q145 1077 453 1434H576Q263 1064 263 548Q263 48 573 -326H451Z"/><glyph unicode=")" horiz-adv-x="598" d="M25 -326Q335 48 335 548Q335 1064 22 1434H145Q453 1077 453 546Q453 28 147 -326H25Z"/><glyph unicode="*" horiz-adv-x="842" d="M487 1049L682 794L589 731L424 1002L256 731L164 794L358 1049L73 1115L106 1220L384 1120L364 1434H480L462 1120L736 1220L770 1115L487 1049Z"/><glyph unicode="+" horiz-adv-x="1366" d="M737 542V135H629V542H221V651H629V1059H737V651H1145V542H737Z"/><glyph unicode="," horiz-adv-x="449" d="M140 -256H43L176 227H307L140 -256Z"/><glyph unicode="-" horiz-adv-x="817" d="M144 530V640H691V530H144Z"/><glyph unicode="." horiz-adv-x="449" d="M224 -20Q184 -20 156 8T128 76Q128 117 155 145T224 173Q244 173 261 166T292 146T313 115T321 76Q321 56 313 39T292 8T262 -12T224 -20Z"/><glyph unicode="/" horiz-adv-x="774" d="M93 -238H-29L664 1434H789L93 -238Z"/><glyph unicode="0" horiz-adv-x="1079" d="M526 -24Q423 -24 342 22T205 157T119 380T89 687Q89 1069 209 1263T557 1458Q989 1458 989 723Q989 541 958 402T868 168T722 25T526 -24ZM549 1346Q389 1346 305 1184T221 697Q221 397 301 242T540 86Q617 86 676 126T776 245T836 440T857 707Q857 1346 549 1346Z"/><glyph unicode="1" horiz-adv-x="768" d="M426 0V1282Q391 1252 348 1224T259 1172T168 1128T83 1095V1208Q201 1246 308 1312T517 1466H554V0H426Z"/><glyph unicode="2" horiz-adv-x="1079" d="M791 1066Q791 1134 771 1186T713 1274T624 1328T509 1346Q413 1346 325 1301T158 1179V1321Q234 1386 324 1422T527 1458Q545 1458 561 1456T594 1450Q668 1442 728 1413T832 1336T898 1225T922 1081Q922 989 898 916T830 782T723 666T583 556Q497 494 436 447T334 356T272 270T245 174Q240 160 239 146T237 115H951V0H102V69Q102 165 124 235T195 367T318 490T498 627Q569 679 624 727T716 827T772 937T791 1066Z"/><glyph unicode="3" horiz-adv-x="1079" d="M123 193Q278 86 443 86Q511 86 574 103T685 156T763 249T792 385Q792 535 687 611T376 687H262V798H367Q553 798 647 871T741 1086Q741 1213 672 1279T463 1346Q319 1346 179 1248V1377Q329 1458 490 1458Q566 1458 636 1437T758 1374T842 1268T874 1119Q874 832 590 752V748Q660 740 721 714T827 643T898 537T924 399Q924 297 886 218T782 85T628 3T439 -25Q257 -25 123 52V193Z"/><glyph unicode="4" horiz-adv-x="1124" d="M856 1434V472H1080V356H856V0H729V356H50V472Q145 580 242 702T429 951T593 1201T719 1434H856ZM729 472V1229Q655 1101 582 991T441 786T310 613T195 472H729Z"/><glyph unicode="5" horiz-adv-x="1079" d="M160 172Q303 86 446 86Q528 86 594 110T706 178T778 284T803 421Q803 579 706 662T420 745Q344 745 202 733L246 1434H871V1318H355L325 853Q412 859 463 859Q577 859 664 830T812 745T903 611T934 432Q934 330 901 246T805 102T650 9T441 -24Q264 -24 160 32V172Z"/><glyph unicode="6" horiz-adv-x="1079" d="M996 455Q996 350 964 262T873 111T734 11T557 -25Q453 -25 372 18T234 146T147 352T117 630Q117 817 156 970T270 1231T449 1399T688 1458Q821 1458 911 1420V1293Q806 1346 689 1346Q588 1346 507 1299T368 1164T280 956T249 687H253Q356 897 596 897Q687 897 760 864T886 772T967 632T996 455ZM864 435Q864 514 844 579T785 689T692 760T567 785Q501 785 445 759T347 689T283 588T260 469Q260 391 282 322T344 200T440 118T564 87Q630 87 685 113T779 185T841 295T864 435Z"/><glyph unicode="7" horiz-adv-x="1034" d="M964 1380Q887 1241 822 1117T702 878T603 655T525 440T465 224T421 0H286Q310 156 359 320T476 651T628 986T806 1318H70V1434H964V1380Z"/><glyph unicode="8" horiz-adv-x="1079" d="M98 400Q98 457 115 513T166 619T250 709T365 773Q268 823 211 906T153 1092Q153 1171 182 1238T264 1354T387 1430T542 1458Q626 1458 697 1430T821 1353T902 1237T931 1092Q931 1041 916 994T874 906T808 832T722 773Q786 749 835 709T917 620T968 514T985 400Q985 303 953 225T862 91T722 7T541 -23Q444 -23 363 6T223 91T131 224T98 400ZM235 402Q235 331 257 274T319 175T416 112T541 90Q608 90 664 112T761 175T825 273T848 402Q848 465 826 521T764 620T668 687T541 712Q475 712 419 689T322 625T258 527T235 402ZM285 1084Q285 1029 305 981T360 898T442 843T542 822Q595 822 642 842T724 898T779 982T800 1084Q800 1140 780 1188T726 1271T644 1327T542 1347Q485 1347 438 1327T356 1270T304 1186T285 1084Z"/><glyph unicode="9" horiz-adv-x="1079" d="M977 806Q977 608 939 454T829 193T649 31T404 -25Q282 -25 175 18V147Q292 87 407 87Q618 87 732 255T846 746H842Q746 538 506 538Q416 538 341 571T212 662T128 802T98 982Q98 1088 131 1175T224 1326T366 1423T545 1458Q646 1458 726 1416T862 1292T947 1087T977 806ZM834 953Q834 1040 812 1112T749 1236T653 1317T531 1346Q466 1346 411 1320T316 1249T253 1140T230 1002Q230 921 252 856T314 746T410 677T535 653Q597 653 651 677T746 741T810 836T834 953Z"/><glyph unicode=":" horiz-adv-x="449" d="M224 852Q204 852 187 859T156 880T136 911T128 949Q128 989 156 1016T224 1044Q243 1044 260 1037T291 1018T313 988T321 949Q321 928 313 911T292 880T261 860T224 852ZM224 -20Q184 -20 156 8T128 76Q128 117 155 145T224 173Q244 173 261 166T292 146T313 115T321 76Q321 56 313 39T292 8T262 -12T224 -20Z"/><glyph unicode=";" horiz-adv-x="449" d="M231 852Q189 852 162 880T135 949Q135 990 162 1017T231 1044Q271 1044 299 1017T327 949Q327 928 319 911T298 880T267 860T231 852ZM140 -256H43L176 227H307L140 -256Z"/><glyph unicode="&lt;" horiz-adv-x="1366" d="M260 569V608L1106 1082V960L447 593V589L1106 265V142L260 569Z"/><glyph unicode="=" horiz-adv-x="1366" d="M221 747V855H1145V747H221ZM221 340V448H1145V340H221Z"/><glyph unicode="&gt;" horiz-adv-x="1366" d="M260 142V265L921 588V593L260 960V1082L1106 608V569L260 142Z"/><glyph unicode="?" horiz-adv-x="899" d="M356 398Q346 424 339 464T332 546Q332 597 348 638T390 717T450 788T522 857Q552 885 579 914T628 976T662 1046T675 1127Q675 1179 657 1219T606 1286T529 1328T433 1343Q343 1343 267 1311T125 1215V1357Q199 1408 277 1433T445 1458Q520 1458 585 1438T699 1377T775 1279T803 1143Q803 1087 788 1040T747 953T689 878T623 811Q580 770 548 738T493 675T460 614T448 545Q448 499 457 462T477 398H356ZM418 -18Q399 -18 382 -11T352 9T331 39T323 77Q323 98 330 115T351 145T381 165T418 173Q437 173 454 166T485 146T507 116T515 77Q515 57 507 40T486 9T455 -11T418 -18Z"/><glyph unicode="@" horiz-adv-x="1944" d="M1154 423Q1072 185 864 185Q789 185 732 214T637 294T580 412T560 556Q560 616 571 679T604 800T660 910T740 1000T845 1061T977 1083Q1009 1083 1041 1075T1101 1050T1151 1009T1185 952H1189L1199 1069H1305L1256 496Q1256 284 1392 284Q1443 284 1482 304T1551 358T1602 436T1635 529T1654 626T1660 718Q1660 865 1612 983T1475 1184T1262 1312T988 1357Q883 1357 791 1331T620 1258T480 1143T375 994T309 815T286 614Q286 458 335 329T475 107T694 -37T983 -88Q1231 -88 1407 -3V-112Q1224 -188 973 -188Q794 -188 646 -129T393 36T229 289T170 611Q170 727 197 834T274 1036T397 1207T562 1340T763 1425T997 1456Q1105 1456 1205 1432T1391 1364T1549 1255T1671 1109T1749 932T1777 727Q1777 669 1768 607T1738 484T1687 369T1613 274T1514 209T1387 185Q1167 185 1158 423H1154ZM974 984Q894 984 838 946T746 846T694 709T678 559Q678 496 692 445T732 359T796 304T881 285Q937 285 979 307T1053 367T1106 452T1140 553T1158 659T1164 758Q1164 870 1115 927T974 984Z"/><glyph unicode="A" horiz-adv-x="1303" d="M1115 0L957 424H342L188 0H40L586 1434H720L1263 0H1115ZM678 1183Q671 1202 664 1227T651 1284H647Q641 1252 634 1227T619 1183L387 545H912L678 1183Z"/><glyph unicode="B" horiz-adv-x="1144" d="M186 0V1434H578Q667 1434 738 1410T860 1343T938 1238T965 1104Q965 1042 948 988T899 890T821 813T715 761V757Q787 750 846 722T947 649T1012 544T1035 411Q1035 320 1002 245T910 115T768 30T587 0H186ZM319 1312V803H505Q578 803 637 822T738 877T802 964T825 1079Q825 1312 535 1312H319ZM319 683V121H566Q725 121 810 195T896 407Q896 683 521 683H319Z"/><glyph unicode="C" horiz-adv-x="1270" d="M1150 53Q984 -25 771 -25Q619 -25 495 28T284 177T149 403T101 689Q101 852 151 992T296 1236T523 1399T823 1458Q1006 1458 1150 1402V1260Q996 1337 821 1337Q682 1337 574 1289T392 1156T279 954T240 699Q240 575 275 466T378 274T549 144T786 96Q993 96 1150 183V53Z"/><glyph unicode="D" horiz-adv-x="1408" d="M186 0V1434H563Q931 1434 1119 1258T1307 736Q1307 570 1255 434T1103 202T863 53T545 0H186ZM319 1312V121H539Q687 121 803 161T1001 278T1124 470T1167 732Q1167 1312 554 1312H319Z"/><glyph unicode="E" horiz-adv-x="1030" d="M186 0V1434H885V1312H319V786H843V666H319V121H917V0H186Z"/><glyph unicode="F" horiz-adv-x="976" d="M319 1312V772H843V651H319V0H186V1434H885V1312H319Z"/><glyph unicode="G" horiz-adv-x="1386" d="M1240 99Q1019 -25 772 -25Q616 -25 492 28T281 177T148 405T101 697Q101 802 123 899T189 1081T296 1235T440 1354T620 1431T831 1458Q1044 1458 1211 1382V1235Q1027 1337 815 1337Q684 1337 578 1289T398 1157T282 959T240 710Q239 577 274 465T380 270T553 142T791 96Q973 96 1107 172V609H781V730H1240V99Z"/><glyph unicode="H" horiz-adv-x="1420" d="M1101 0V671H319V0H186V1434H319V791H1101V1434H1234V0H1101Z"/><glyph unicode="I" horiz-adv-x="506" d="M319 0H186V1434H319V0Z"/><glyph unicode="J" horiz-adv-x="697" d="M521 504Q521 236 422 106T142 -24Q107 -24 76 -20T19 -5V126Q75 96 144 96Q271 96 329 196T388 504V1434H521V504Z"/><glyph unicode="K" horiz-adv-x="1133" d="M937 0L354 671Q330 700 323 712H319V0H186V1434H319V759H323Q330 770 338 780T355 801L913 1434H1082L460 742L1123 0H937Z"/><glyph unicode="L" horiz-adv-x="951" d="M186 0V1434H319V121H895V0H186Z"/><glyph unicode="M" horiz-adv-x="1772" d="M1455 0V990Q1455 1066 1467 1235H1463Q1449 1190 1438 1157T1416 1103L916 0H859L358 1096Q336 1146 313 1237H309Q313 1191 314 1132T316 1001V0H186V1434H343L830 356Q845 322 859 287T886 211H892Q906 251 917 284T946 355L1437 1434H1586V0H1455Z"/><glyph unicode="N" horiz-adv-x="1492" d="M1168 0L372 1151Q357 1173 343 1196T319 1241H314Q316 1223 317 1191T319 1111V0H186V1434H333L1116 297Q1134 270 1148 247T1175 203H1180Q1176 236 1174 277T1172 368V1434H1306V0H1168Z"/><glyph unicode="O" horiz-adv-x="1551" d="M770 -25Q615 -25 491 31T281 186T148 416T101 701Q101 869 147 1008T283 1247T501 1402T795 1458Q947 1458 1068 1404T1274 1253T1404 1024T1450 737Q1450 574 1406 435T1275 193T1062 33T770 -25ZM781 1337Q651 1337 551 1288T381 1154T277 956T240 714Q239 592 271 481T369 284T535 147T769 96Q903 96 1004 142T1174 271T1276 468T1311 717Q1311 843 1281 956T1186 1153T1021 1287T781 1337Z"/><glyph unicode="P" horiz-adv-x="1130" d="M319 558V0H186V1434H556Q669 1434 756 1406T903 1325T994 1195T1025 1019Q1025 919 990 835T890 689T730 593T517 558H319ZM319 1312V680H509Q694 680 790 766T886 1009Q886 1312 532 1312H319Z"/><glyph unicode="Q" horiz-adv-x="1551" d="M770 -24Q618 -24 495 29T284 177T149 406T101 701Q101 874 149 1013T288 1252T506 1404T795 1458Q941 1458 1061 1406T1268 1258T1402 1030T1450 737Q1450 505 1369 337T1141 76L1537 -193H1295L1007 13Q953 -5 894 -14T770 -24ZM781 1337Q662 1337 563 1292T392 1164T280 968T240 714Q240 574 278 460T385 265T551 140T769 96Q894 96 994 138T1164 260T1273 455T1311 717Q1311 864 1274 979T1168 1173T1001 1295T781 1337Z"/><glyph unicode="R" horiz-adv-x="1181" d="M967 0L751 411Q719 472 689 513T627 578T559 613T477 624H319V0H186V1434H599Q680 1434 755 1410T890 1339T984 1221T1020 1056Q1020 980 997 916T932 803T829 719T692 667V663Q721 651 745 632T791 586T836 524T882 444L1123 0H967ZM319 1312V745H557Q629 745 689 766T791 826T857 920T881 1044Q881 1169 801 1240T568 1312H319Z"/><glyph unicode="S" horiz-adv-x="1053" d="M130 210Q166 183 209 162T298 126T390 104T478 96Q641 96 722 159T803 340Q803 397 784 439T725 519T624 592T480 675Q388 725 323 769T216 860T155 961T135 1084Q135 1171 172 1240T272 1357T419 1432T600 1458Q769 1458 883 1411V1264Q756 1337 585 1337Q521 1337 465 1322T366 1276T299 1202T274 1098Q274 1042 290 1002T343 925T439 854T585 772Q675 724 742 679T853 584T920 479T942 355Q942 261 907 190T809 71T659 0T468 -24Q434 -24 387 -19T292 -3T201 22T130 54V210Z"/><glyph unicode="T" horiz-adv-x="1060" d="M596 1312V0H463V1312H50V1434H1010V1312H596Z"/><glyph unicode="U" horiz-adv-x="1367" d="M1199 576Q1199 -25 671 -25Q168 -25 168 554V1434H301V566Q301 330 396 213T690 96Q1066 96 1066 552V1434H1199V576Z"/><glyph unicode="V" horiz-adv-x="1254" d="M681 0H551L29 1434H178L584 288Q595 256 603 224T617 156H621Q626 184 635 217T658 290L1081 1434H1225L681 0Z"/><glyph unicode="W" horiz-adv-x="1873" d="M1422 0H1283L976 1063Q965 1101 959 1136T951 1204H947Q943 1146 918 1065L600 0H461L38 1434H186L502 309Q513 272 519 239T530 174H534Q540 219 567 309L903 1434H1008L1323 305Q1332 271 1339 239T1350 175H1354Q1356 195 1362 220T1376 276L1690 1434H1835L1422 0Z"/><glyph unicode="X" horiz-adv-x="1180" d="M967 0L637 548Q626 567 614 589T594 633H589Q579 613 569 592T544 548L206 0H43L510 722L76 1434H238L545 912Q559 889 571 865T597 814H601Q615 843 628 868T655 914L967 1434H1121L681 724L1129 0H967Z"/><glyph unicode="Y" horiz-adv-x="1119" d="M617 537V0H484V534L34 1434H185L513 764Q519 752 529 728T553 667H556Q562 685 573 709T600 763L943 1434H1085L617 537Z"/><glyph unicode="Z" horiz-adv-x="1167" d="M249 121H1088V0H49V39L900 1312H117V1434H1105V1400L249 121Z"/><glyph unicode="[" horiz-adv-x="598" d="M204 -326V1434H547V1332H323V-224H547V-326H204Z"/><glyph unicode="\" horiz-adv-x="763" d="M657 -239L-27 1434H98L779 -239H657Z"/><glyph unicode="]" horiz-adv-x="598" d="M52 -326V-224H275V1332H52V1434H394V-326H52Z"/><glyph unicode="^" horiz-adv-x="1366" d="M999 663L680 1279H675L366 663H245L648 1458H701L1122 663H999Z"/><glyph unicode="_" horiz-adv-x="850" d="M0 -282V-178H850V-282H0Z"/><glyph unicode="`" horiz-adv-x="528" d="M334 1203L79 1531H215L442 1203H334Z"/><glyph unicode="a" horiz-adv-x="1026" d="M755 0V182H751Q701 84 615 30T419 -24Q345 -24 286 -3T185 56T121 149T98 268Q98 407 184 489T444 597L755 642Q755 937 526 937Q347 937 194 806V946Q226 969 266 987T352 1019T444 1040T537 1048Q708 1048 795 952T883 666V0H755ZM491 497Q422 487 373 472T292 432T245 369T230 276Q230 235 244 200T286 140T353 100T443 86Q511 86 568 112T666 184T731 294T755 433V534L491 497Z"/><glyph unicode="b" horiz-adv-x="1175" d="M293 165V0H165V1516H293V828H297Q354 935 449 991T665 1048Q763 1048 840 1013T971 911T1053 752T1082 545Q1082 418 1050 314T957 134T812 18T620 -24Q403 -24 297 165H293ZM293 426Q293 356 316 295T382 187T483 113T615 86Q692 86 754 118T859 211T926 356T950 546Q950 636 928 708T866 832T768 910T639 937Q559 937 495 908T386 827T317 708T293 562V426Z"/><glyph unicode="c" horiz-adv-x="927" d="M846 46Q732 -23 570 -25Q460 -26 372 13T222 121T127 285T94 491Q94 606 129 707T231 884T395 1004T617 1048Q744 1048 849 999V863Q737 937 607 937Q516 937 445 903T326 809T252 670T226 501Q226 419 247 344T313 212T426 120T586 86Q730 86 846 172V46Z"/><glyph unicode="d" horiz-adv-x="1176" d="M883 0V180H879Q828 83 734 30T519 -24Q423 -24 345 11T210 114T124 276T93 491Q93 615 126 717T221 893T369 1007T562 1048Q783 1048 879 871H883V1516H1011V0H883ZM883 618Q883 685 860 743T796 844T698 912T571 937Q495 937 431 907T322 821T251 683T225 499Q225 402 248 325T313 195T415 114T546 86Q624 86 686 114T792 191T859 306T883 447V618Z"/><glyph unicode="e" horiz-adv-x="1052" d="M226 489Q227 395 251 320T320 193T429 114T575 86Q748 86 902 207V81Q755 -24 546 -24Q443 -24 359 12T216 116T125 285T93 513Q93 628 128 726T225 895T372 1007T558 1048Q657 1048 733 1014T860 915T939 759T966 553V489H226ZM834 601Q831 761 758 849T555 937Q490 937 435 914T337 848T268 742T229 601H834Z"/><glyph unicode="f" horiz-adv-x="603" d="M642 1395Q599 1423 531 1423Q351 1423 351 1188V1024H606V912H351V0H223V912H44V1024H223V1196Q223 1273 242 1335T300 1442T395 1511T528 1535Q600 1535 642 1516V1395Z"/><glyph unicode="g" horiz-adv-x="1176" d="M1011 79Q1011 -206 882 -343T482 -481Q314 -481 164 -406V-276Q331 -369 482 -369Q883 -369 883 55V178H879Q761 -24 519 -24Q424 -24 346 11T211 112T124 272T93 486Q93 612 126 715T220 893T367 1007T562 1048Q779 1048 879 872H883V1024H1011V79ZM883 622Q883 686 860 743T796 843T699 911T574 937Q494 937 430 906T320 818T250 680T225 496Q225 402 248 326T313 197T414 115T547 86Q623 86 685 113T791 189T859 303T883 445V622Z"/><glyph unicode="h" horiz-adv-x="1127" d="M856 0V602Q856 774 794 855T601 937Q539 937 483 912T385 840T318 726T293 573V0H165V1516H293V847H297Q417 1048 641 1048Q812 1048 898 943T984 633V0H856Z"/><glyph unicode="i" horiz-adv-x="458" d="M228 1283Q191 1283 164 1309T137 1375Q137 1414 164 1439T228 1465Q247 1465 264 1459T293 1440T313 1412T321 1375Q321 1356 314 1339T294 1310T265 1290T228 1283ZM165 0V1024H293V0H165Z"/><glyph unicode="j" horiz-adv-x="458" d="M293 36Q293 -218 203 -350T-84 -482Q-154 -482 -225 -448V-324Q-147 -370 -77 -370Q165 -370 165 14V1024H293V36ZM228 1283Q191 1283 164 1309T137 1375Q137 1414 164 1439T228 1465Q247 1465 264 1459T293 1440T313 1412T321 1375Q321 1356 314 1339T294 1310T265 1290T228 1283Z"/><glyph unicode="k" horiz-adv-x="963" d="M768 0L297 499H293V0H165V1516H293V547H297L744 1024H911L431 529L949 0H768Z"/><glyph unicode="l" horiz-adv-x="458" d="M165 0V1516H293V0H165Z"/><glyph unicode="m" horiz-adv-x="1723" d="M1452 0V602Q1452 694 1438 757T1395 861T1320 919T1211 937Q1155 937 1105 911T1018 838T959 728T937 592V0H809V615Q809 937 562 937Q505 937 456 912T371 840T314 730T293 587V0H165V1024H293V858H297Q405 1048 612 1048Q666 1048 714 1032T800 986T865 915T907 825Q961 934 1047 991T1243 1048Q1580 1048 1580 632V0H1452Z"/><glyph unicode="n" horiz-adv-x="1127" d="M856 0V590Q856 937 604 937Q537 937 480 911T382 837T317 726T293 586V0H165V1024H293V846H297Q411 1048 640 1048Q808 1048 896 939T984 624V0H856Z"/><glyph unicode="o" horiz-adv-x="1174" d="M584 -24Q470 -24 380 14T225 121T127 288T93 503Q93 631 129 732T231 903T392 1011T602 1048Q713 1048 802 1012T953 906T1048 738T1081 513Q1081 393 1047 295T948 125T792 15T584 -24ZM594 937Q510 937 442 908T326 824T251 688T225 505Q225 409 251 332T324 200T440 116T592 86Q678 86 744 114T856 197T925 331T949 511Q949 718 857 827T594 937Z"/><glyph unicode="p" horiz-adv-x="1175" d="M293 165V-471H165V1024H293V828H297Q354 935 449 991T665 1048Q763 1048 840 1013T971 912T1053 754T1082 545Q1082 418 1050 314T958 134T813 18T620 -24Q404 -24 297 165H293ZM293 426Q293 356 316 295T382 187T483 113T615 86Q692 86 754 118T859 211T926 356T950 546Q950 636 928 708T866 832T768 910T639 937Q559 937 495 908T386 827T317 708T293 562V426Z"/><glyph unicode="q" horiz-adv-x="1176" d="M883 -471V182H879Q770 -24 519 -24Q422 -24 343 12T209 115T123 277T93 492Q93 620 127 722T224 897T372 1009T564 1048Q783 1048 879 870H883V1024H1011V-471H883ZM883 612Q883 681 861 740T797 843T698 912T569 937Q493 937 430 908T322 822T251 684T225 496Q225 400 248 324T313 195T413 114T541 86Q623 86 686 114T793 192T860 307T883 449V612Z"/><glyph unicode="r" horiz-adv-x="694" d="M673 893Q628 926 557 926Q506 926 467 907T399 854T349 778T316 687T298 592T292 501V0H165V1024H292V805H296Q314 861 341 905T405 980T483 1027T573 1043Q604 1043 628 1039T673 1027V893Z"/><glyph unicode="s" horiz-adv-x="832" d="M107 184Q136 161 170 143T240 112T312 93T382 86Q610 86 610 257Q610 296 594 324T548 376T476 420T381 462Q310 491 259 521T175 586T126 664T110 761Q110 829 139 882T219 972T334 1028T472 1048Q605 1048 704 998V863Q589 937 456 937Q408 937 369 925T301 891T258 839T242 771Q242 733 254 705T291 653T357 609T456 564Q530 534 584 505T673 441T725 364T742 265Q742 196 714 142T635 51T516 -5T368 -24Q213 -24 107 41V184Z"/><glyph unicode="t" horiz-adv-x="651" d="M605 12Q539 -21 461 -21Q213 -21 213 265V912H33V1024H213V1282L341 1324V1024H605V912H341V285Q341 181 375 135T490 89Q550 89 605 125V12Z"/><glyph unicode="u" horiz-adv-x="1128" d="M835 0V174H831Q727 -24 508 -24Q143 -24 143 422V1024H271V446Q271 262 336 174T537 86Q603 86 657 111T751 183T813 295T835 439V1024H963V0H835Z"/><glyph unicode="v" horiz-adv-x="954" d="M530 0H408L16 1024H157L440 244Q466 173 473 119H477Q489 191 508 240L801 1024H938L530 0Z"/><glyph unicode="w" horiz-adv-x="1433" d="M1090 0H962L745 752Q735 787 729 843H725Q723 828 719 806T704 754L465 0H340L30 1024H167L392 230Q402 195 406 141H414Q416 159 420 182T433 231L681 1024H787L1009 229Q1018 195 1024 140H1032Q1031 157 1036 179T1049 229L1274 1024H1403L1090 0Z"/><glyph unicode="x" horiz-adv-x="902" d="M526 504L862 0H708L500 339Q488 358 476 378T450 421H446Q441 411 431 395T405 353L181 0H30L376 501L41 1024H190L403 665Q419 638 431 617T451 581H455Q468 600 479 619T502 659L728 1024H872L526 504Z"/><glyph unicode="y" horiz-adv-x="959" d="M462 -186Q402 -336 324 -408T135 -481Q80 -481 42 -468V-348Q64 -356 86 -360T132 -364Q195 -364 241 -325T322 -205L411 5L17 1024H159L452 213Q458 197 463 177T474 136H479Q484 153 488 170T501 209L812 1024H947L462 -186Z"/><glyph unicode="z" horiz-adv-x="938" d="M240 112H871V0H45V43L688 912H98V1024H886V988L240 112Z"/><glyph unicode="{" horiz-adv-x="598" d="M530 -326Q390 -322 320 -250T249 -25V273Q249 383 210 442T93 509V599Q249 616 249 828V1131Q249 1285 319 1357T530 1434V1328Q445 1323 408 1273T371 1111V818Q371 601 223 556V552Q371 506 371 283V1Q371 -57 379 -98T406 -166T455 -206T530 -221V-326Z"/><glyph unicode="|" horiz-adv-x="476" d="M178 -481V1566H299V-481H178Z"/><glyph unicode="}" horiz-adv-x="598" d="M505 509Q350 492 350 273V-25Q350 -178 280 -250T69 -326V-221Q110 -220 140 -208T189 -171T218 -103T228 1V283Q228 505 376 552V556Q228 603 228 818V1111Q228 1170 218 1210T189 1276T139 1314T69 1328V1434Q209 1430 279 1358T350 1131V828Q350 614 505 599V509Z"/><glyph unicode="~" horiz-adv-x="1366" d="M1140 730Q1133 599 1066 527T884 454Q781 454 651 551Q549 626 483 626Q343 626 334 459H227Q230 523 249 574T301 661T380 716T484 735Q584 735 699 651Q734 626 760 609T809 581T851 566T890 561Q954 561 991 605T1034 730H1140Z"/><glyph unicode="¤" horiz-adv-x="1138" d="M946 275L810 412Q705 331 569 331Q431 331 329 412L192 275L116 354L254 486Q174 599 174 725Q174 861 254 963L116 1098L192 1176L329 1040Q440 1121 569 1121Q702 1121 808 1040L946 1176L1022 1098L884 963Q965 857 965 725Q965 599 884 486L1022 354L946 275ZM570 1013Q510 1013 458 990T366 928T305 837T282 727Q282 669 305 617T367 525T459 462T569 439Q627 439 679 462T771 524T834 616T857 727Q857 786 834 838T770 929T678 990T570 1013Z"/><glyph unicode="¦" horiz-adv-x="476" d="M178 715V1566H299V715H178ZM178 -481V370H299V-481H178Z"/><glyph unicode="§" horiz-adv-x="918" d="M638 409Q685 372 706 324T728 215Q728 154 704 103T635 14T529 -45T393 -66Q274 -66 165 -13V115Q290 46 399 46Q496 46 547 90T598 207Q598 261 564 302Q556 318 526 339T447 386L364 430Q303 462 262 497T196 570T159 649T148 735Q148 902 303 985Q188 1067 188 1206Q188 1268 211 1320T276 1411T379 1470T513 1491Q634 1491 720 1451V1324Q628 1379 510 1379Q320 1379 320 1213Q320 1179 329 1152T365 1099T443 1043T576 975Q683 925 736 853T789 689Q789 523 638 409ZM402 925Q279 868 279 744Q279 702 291 669T335 605T418 544T548 479Q603 521 630 566T657 680Q657 718 647 748T608 806T530 862T402 925Z"/><glyph unicode="¨" horiz-adv-x="832" d="M592 1203Q559 1203 534 1226T508 1288Q508 1325 532 1348T590 1372Q626 1372 652 1348T678 1288Q678 1252 654 1228T592 1203ZM234 1203Q216 1203 201 1209T173 1227T154 1254T147 1288Q147 1325 172 1348T231 1372Q249 1372 265 1366T293 1348T312 1322T319 1288Q319 1252 294 1228T234 1203Z"/><glyph unicode="©" horiz-adv-x="1813" d="M159 714Q159 817 185 912T261 1091T378 1243T529 1360T708 1435T907 1462Q1010 1462 1105 1436T1284 1360T1436 1243T1553 1092T1628 913T1655 714Q1655 611 1629 516T1553 337T1436 185T1285 68T1106 -7T907 -34Q804 -34 709 -8T530 68T378 185T261 336T186 515T159 714ZM240 714Q240 576 292 455T435 243T647 100T907 47Q1045 47 1166 99T1378 242T1521 454T1574 714Q1574 852 1522 973T1379 1185T1167 1328T907 1381Q769 1381 648 1329T436 1186T293 974T240 714ZM1197 268Q1079 198 938 198Q837 198 747 235T590 337T483 493T444 691Q444 804 479 902T580 1072T743 1187T960 1229Q1090 1229 1193 1175V1057Q1094 1122 943 1122Q857 1122 787 1091T667 1004T590 873T562 710Q562 628 589 554T667 424T790 336T952 303Q1091 303 1197 376V268Z"/><glyph unicode="«" horiz-adv-x="994" d="M398 200L110 536L398 880H532L245 536L532 200H398ZM750 200L462 536L750 880H884L597 536L884 200H750Z"/><glyph unicode="¬" horiz-adv-x="1366" d="M1037 200V619H222V728H1146V200H1037Z"/><glyph unicode="­" horiz-adv-x="817" d="M144 530V640H691V530H144Z"/><glyph unicode="®" horiz-adv-x="1813" d="M857 255Q607 255 432 430T256 853Q256 1104 432 1279T856 1454Q1104 1454 1281 1279T1458 856Q1458 606 1283 431T857 255ZM853 1372Q642 1372 494 1220T345 853Q345 640 492 489T853 337Q1067 337 1218 488T1369 853Q1369 1067 1218 1219T853 1372ZM1040 482L948 672Q908 758 871 787T786 817H716V482H619V1254H845Q973 1254 1047 1199T1121 1051Q1121 874 919 837V834Q977 820 1047 694L1149 482H1040ZM716 1174V898H848Q926 898 973 933T1020 1038Q1020 1174 829 1174H716Z"/><glyph unicode="°" horiz-adv-x="781" d="M126 1177Q126 1232 146 1280T203 1364T287 1421T390 1442Q445 1442 493 1421T577 1364T634 1280T655 1177Q655 1122 634 1074T577 990T493 934T390 913Q335 913 287 933T203 990T147 1074T126 1177ZM227 1178Q227 1144 239 1114T274 1060T327 1024T391 1010Q425 1010 454 1024T506 1061T540 1115T553 1178Q553 1212 542 1242T509 1295T457 1331T391 1345Q356 1345 326 1332T274 1295T240 1242T227 1178Z"/><glyph unicode="±" horiz-adv-x="1366" d="M738 642V234H631V642H222V750H631V1158H738V750H1146V642H738ZM222 0V108H1146V0H222Z"/><glyph unicode="´" horiz-adv-x="543" d="M244 1203H136L364 1531H499L244 1203Z"/><glyph unicode="µ" horiz-adv-x="1149" d="M869 0Q857 83 857 177H853Q759 -24 548 -24Q376 -24 298 99H292V-393H165V1024H292V426Q292 263 359 177T559 90Q626 90 680 115T774 187T834 297T855 441V1024H984V260Q984 181 988 116T1000 0H869Z"/><glyph unicode="¶" horiz-adv-x="954" d="M719 1339V0H623V1339H445V0H348V903Q294 903 249 923T170 979T117 1063T98 1168Q98 1228 118 1277T174 1361T255 1415T354 1434H849V1339H719Z"/><glyph unicode="»" horiz-adv-x="994" d="M596 880L884 544L596 200H462L749 544L462 880H596ZM244 880L532 544L244 200H110L397 544L110 880H244Z"/><glyph unicode="ı" horiz-adv-x="458" d="M165 0V1024H293V0H165Z"/><glyph unicode="Γ" horiz-adv-x="951" d="M320 1310V0H186V1434H895V1310H320Z"/><glyph unicode="Ё" horiz-adv-x="1030" d="M186 0V1434H885V1312H319V786H843V666H319V121H917V0H186ZM731 1551Q698 1551 673 1574T647 1636Q647 1673 671 1696T729 1720Q765 1720 791 1696T817 1636Q817 1600 793 1576T731 1551ZM373 1551Q355 1551 340 1557T312 1575T293 1602T286 1636Q286 1673 311 1696T370 1720Q388 1720 404 1714T432 1696T451 1670T458 1636Q458 1600 433 1576T373 1551Z"/><glyph unicode="Ђ" horiz-adv-x="1421" d="M1297 381Q1297 293 1273 220T1202 93T1084 9T918 -21Q873 -21 831 -15T757 3V130Q789 116 830 107T916 97Q977 97 1022 119T1098 180T1143 269T1158 379Q1158 451 1136 509T1070 608T962 671T814 693H549V0H416V1312H50V1434H1010V1312H549V812H823Q929 812 1016 785T1165 703T1262 568T1297 381Z"/><glyph unicode="Ѓ" horiz-adv-x="951" d="M320 1310V0H186V1434H895V1310H320ZM553 1551H445L673 1879H808L553 1551Z"/><glyph unicode="Є" horiz-adv-x="1267" d="M769 -24Q620 -24 497 27T286 173T150 398T101 689Q101 869 155 1011T305 1253T529 1405T806 1458Q916 1458 998 1442T1147 1402V1260Q1075 1295 991 1316T804 1337Q689 1337 592 1299T420 1189T300 1013T243 777H911V655H241Q247 518 291 414T408 239T576 132T779 96Q891 96 983 119T1147 183V53Q1080 21 987 -1T769 -24Z"/><glyph unicode="Ѕ" horiz-adv-x="1053" d="M130 210Q166 183 209 162T298 126T390 104T478 96Q641 96 722 159T803 340Q803 397 784 439T725 519T624 592T480 675Q388 725 323 769T216 860T155 961T135 1084Q135 1171 172 1240T272 1357T419 1432T600 1458Q769 1458 883 1411V1264Q756 1337 585 1337Q521 1337 465 1322T366 1276T299 1202T274 1098Q274 1042 290 1002T343 925T439 854T585 772Q675 724 742 679T853 584T920 479T942 355Q942 261 907 190T809 71T659 0T468 -24Q434 -24 387 -19T292 -3T201 22T130 54V210Z"/><glyph unicode="І" horiz-adv-x="506" d="M319 0H186V1434H319V0Z"/><glyph unicode="Ї" horiz-adv-x="506" d="M319 0H186V1434H319V0ZM434 1551Q401 1551 376 1574T350 1636Q350 1673 374 1696T432 1720Q468 1720 494 1696T520 1636Q520 1600 496 1576T434 1551ZM76 1551Q58 1551 43 1557T15 1575T-4 1602T-11 1636Q-11 1673 14 1696T73 1720Q91 1720 107 1714T135 1696T154 1670T161 1636Q161 1600 136 1576T76 1551Z"/><glyph unicode="Ј" horiz-adv-x="697" d="M521 504Q521 236 422 106T142 -24Q107 -24 76 -20T19 -5V126Q75 96 144 96Q271 96 329 196T388 504V1434H521V504Z"/><glyph unicode="Љ" horiz-adv-x="2002" d="M1031 0V1311H605Q589 1188 573 1072T542 851T513 656T485 496Q462 373 436 277T371 115T277 15T140 -20Q104 -20 76 -16T23 -3V126Q70 101 126 101Q196 101 243 169T325 385Q343 459 363 568T406 813T450 1107T494 1434H1164V811H1463Q1559 811 1637 787T1772 715T1858 594T1889 421Q1889 330 1859 253T1772 119T1631 32T1442 0H1031ZM1750 412Q1750 557 1666 623T1417 690H1164V121H1420Q1504 121 1566 142T1669 201T1730 293T1750 412Z"/><glyph unicode="Њ" horiz-adv-x="2035" d="M1923 421Q1923 329 1893 252T1806 118T1665 31T1475 0H1065V689H319V0H186V1434H319V810H1065V1434H1198V811H1497Q1592 811 1670 787T1805 715T1892 593T1923 421ZM1784 412Q1784 557 1700 623T1451 690H1198V121H1454Q1537 121 1599 142T1702 201T1763 293T1784 412Z"/><glyph unicode="Ћ" horiz-adv-x="1450" d="M1187 0V386Q1187 541 1115 623T884 706H596V0H463V1312H50V1434H1010V1312H596V825H887Q992 825 1073 799T1208 720T1291 584T1320 388V0H1187Z"/><glyph unicode="Ќ" horiz-adv-x="1133" d="M937 0L354 671Q330 700 323 712H319V0H186V1434H319V759H323Q330 770 338 780T355 801L913 1434H1082L460 742L1123 0H937ZM628 1551H520L748 1879H883L628 1551Z"/><glyph unicode="Ў" horiz-adv-x="1130" d="M681 405Q633 295 586 214T486 80T373 1T241 -25Q193 -25 152 -17T79 5V143Q117 121 157 109T234 96Q283 96 323 115T400 172T470 266T540 397L60 1434H211L562 645Q570 628 582 598T609 533H612Q623 562 635 590T657 641L988 1434H1130L681 405ZM601 1648Q647 1648 687 1663T757 1705T807 1768T831 1846H961Q952 1784 924 1730T849 1637T741 1575T600 1552Q522 1552 461 1574T356 1636T287 1730T254 1846H384Q388 1802 403 1766T446 1703T511 1663T601 1648Z"/><glyph unicode="Џ" horiz-adv-x="1420" d="M770 0V-384H645V0H186V1434H319V121H1101V1434H1234V0H770Z"/><glyph unicode="А" horiz-adv-x="1303" d="M1115 0L957 424H342L188 0H40L586 1434H720L1263 0H1115ZM678 1183Q671 1202 664 1227T651 1284H647Q641 1252 634 1227T619 1183L387 545H912L678 1183Z"/><glyph unicode="Б" horiz-adv-x="1136" d="M1045 421Q1045 329 1015 252T927 118T786 31T597 0H186V1434H929V1312H319V811H618Q714 811 793 787T928 714T1014 592T1045 421ZM905 412Q905 557 821 623T572 690H319V121H575Q659 121 721 142T824 201T885 292T905 412Z"/><glyph unicode="В" horiz-adv-x="1144" d="M186 0V1434H578Q667 1434 738 1410T860 1343T938 1238T965 1104Q965 1042 948 988T899 890T821 813T715 761V757Q787 750 846 722T947 649T1012 544T1035 411Q1035 320 1002 245T910 115T768 30T587 0H186ZM319 1312V803H505Q578 803 637 822T738 877T802 964T825 1079Q825 1312 535 1312H319ZM319 683V121H566Q725 121 810 195T896 407Q896 683 521 683H319Z"/><glyph unicode="Г" horiz-adv-x="951" d="M320 1310V0H186V1434H895V1310H320Z"/><glyph unicode="Д" horiz-adv-x="1385" d="M1216 -384V0H145V-384H17V121H131Q179 211 223 314T308 529T381 756T439 988T479 1217T498 1434H1144V121H1341V-384H1216ZM1011 1312H615Q611 1232 596 1136T557 934T502 719T435 504T358 301T276 121H1011V1312Z"/><glyph unicode="Е" horiz-adv-x="1030" d="M186 0V1434H885V1312H319V786H843V666H319V121H917V0H186Z"/><glyph unicode="Ж" horiz-adv-x="1735" d="M1553 0L968 671Q959 681 951 691T937 712H932V0H804V712H800Q792 701 785 691T769 671L183 0H0L662 741L41 1434H209L768 803Q776 794 784 783T800 761H804V1434H932V761H937Q945 774 953 784T969 803L1527 1434H1694L1074 741L1735 0H1553Z"/><glyph unicode="З" horiz-adv-x="1105" d="M992 399Q992 311 959 234T861 99T701 9T483 -24Q362 -24 269 0T109 66V210Q193 148 291 119T487 89Q574 89 642 112T758 175T830 269T855 387Q855 540 751 613T447 687H308V798H426Q513 798 582 817T700 874T774 966T800 1088Q800 1143 781 1189T726 1270T636 1323T512 1343Q421 1343 336 1315T176 1235V1369Q249 1409 333 1433T523 1458Q621 1458 698 1432T829 1360T910 1251T938 1112Q938 972 866 882T654 754V750Q736 743 799 712T905 634T970 526T992 399Z"/><glyph unicode="И" horiz-adv-x="1493" d="M1172 0V1079Q1172 1128 1173 1170T1178 1241H1173Q1164 1220 1149 1195T1121 1151L325 0H186V1434H319V368Q319 315 318 272T313 203H317Q328 223 344 248T376 297L1160 1434H1306V0H1172Z"/><glyph unicode="Й" horiz-adv-x="1493" d="M1172 0V1079Q1172 1128 1173 1170T1178 1241H1173Q1164 1220 1149 1195T1121 1151L325 0H186V1434H319V368Q319 315 318 272T313 203H317Q328 223 344 248T376 297L1160 1434H1306V0H1172ZM748 1634Q794 1634 834 1649T904 1691T954 1754T978 1832H1108Q1099 1770 1071 1716T996 1623T888 1561T747 1538Q669 1538 608 1560T503 1622T434 1716T401 1832H531Q535 1788 550 1752T593 1689T658 1649T748 1634Z"/><glyph unicode="К" horiz-adv-x="1133" d="M937 0L354 671Q330 700 323 712H319V0H186V1434H319V759H323Q330 770 338 780T355 801L913 1434H1082L460 742L1123 0H937Z"/><glyph unicode="Л" horiz-adv-x="1350" d="M1031 0V1311H605Q590 1190 574 1076T543 860T514 669T487 510Q464 384 438 285T373 119T279 16T140 -20Q104 -20 76 -16T23 -3V126Q70 101 126 101Q172 101 205 131T268 216Q290 258 316 362T372 623T432 985T494 1434H1164V0H1031Z"/><glyph unicode="М" horiz-adv-x="1772" d="M1455 0V990Q1455 1066 1467 1235H1463Q1449 1190 1438 1157T1416 1103L916 0H859L358 1096Q336 1146 313 1237H309Q313 1191 314 1132T316 1001V0H186V1434H343L830 356Q845 322 859 287T886 211H892Q906 251 917 284T946 355L1437 1434H1586V0H1455Z"/><glyph unicode="Н" horiz-adv-x="1420" d="M1101 0V671H319V0H186V1434H319V791H1101V1434H1234V0H1101Z"/><glyph unicode="О" horiz-adv-x="1551" d="M770 -25Q615 -25 491 31T281 186T148 416T101 701Q101 869 147 1008T283 1247T501 1402T795 1458Q947 1458 1068 1404T1274 1253T1404 1024T1450 737Q1450 574 1406 435T1275 193T1062 33T770 -25ZM781 1337Q651 1337 551 1288T381 1154T277 956T240 714Q239 592 271 481T369 284T535 147T769 96Q903 96 1004 142T1174 271T1276 468T1311 717Q1311 843 1281 956T1186 1153T1021 1287T781 1337Z"/><glyph unicode="П" horiz-adv-x="1420" d="M1101 0V1314H319V0H186V1434H1234V0H1101Z"/><glyph unicode="Р" horiz-adv-x="1130" d="M319 558V0H186V1434H556Q669 1434 756 1406T903 1325T994 1195T1025 1019Q1025 919 990 835T890 689T730 593T517 558H319ZM319 1312V680H509Q694 680 790 766T886 1009Q886 1312 532 1312H319Z"/><glyph unicode="С" horiz-adv-x="1270" d="M1150 53Q984 -25 771 -25Q619 -25 495 28T284 177T149 403T101 689Q101 852 151 992T296 1236T523 1399T823 1458Q1006 1458 1150 1402V1260Q996 1337 821 1337Q682 1337 574 1289T392 1156T279 954T240 699Q240 575 275 466T378 274T549 144T786 96Q993 96 1150 183V53Z"/><glyph unicode="Т" horiz-adv-x="1060" d="M596 1312V0H463V1312H50V1434H1010V1312H596Z"/><glyph unicode="У" horiz-adv-x="1130" d="M681 405Q633 295 586 214T486 80T373 1T241 -25Q193 -25 152 -17T79 5V143Q117 121 157 109T234 96Q283 96 323 115T400 172T470 266T540 397L60 1434H211L562 645Q570 628 582 598T609 533H612Q623 562 635 590T657 641L988 1434H1130L681 405Z"/><glyph unicode="Ф" horiz-adv-x="1466" d="M1371 755Q1371 640 1332 538T1221 359T1050 237T830 192H797V-10H670V192H636Q516 192 417 236T246 356T135 535T95 755Q95 866 134 964T245 1135T417 1250T638 1293H670V1474H797V1293H828Q950 1293 1050 1252T1222 1138T1332 967T1371 755ZM1231 753Q1231 849 1202 927T1119 1060T992 1146T828 1177H797V311H830Q919 311 993 342T1120 432T1202 571T1231 753ZM670 1177H638Q549 1177 475 1146T348 1059T265 925T235 753Q235 652 264 570T347 431T474 342T636 311H670V1177Z"/><glyph unicode="Х" horiz-adv-x="1180" d="M967 0L637 548Q626 567 614 589T594 633H589Q579 613 569 592T544 548L206 0H43L510 722L76 1434H238L545 912Q559 889 571 865T597 814H601Q615 843 628 868T655 914L967 1434H1121L681 724L1129 0H967Z"/><glyph unicode="Ц" horiz-adv-x="1477" d="M1295 -384V0H186V1434H319V121H1101V1434H1234V121H1421V-384H1295Z"/><glyph unicode="Ч" horiz-adv-x="1298" d="M979 0V647Q864 594 755 563T539 532Q445 532 375 557T259 630T189 743T165 893V1434H298V904Q298 846 314 799T363 719T443 669T555 651Q651 651 758 679T979 758V1434H1112V0H979Z"/><glyph unicode="Ш" horiz-adv-x="1858" d="M186 0V1434H319V121H861V1434H995V121H1538V1434H1672V0H186Z"/><glyph unicode="Щ" horiz-adv-x="1916" d="M1734 -384V0H186V1434H319V121H861V1434H995V121H1538V1434H1672V121H1860V-384H1734Z"/><glyph unicode="Ъ" horiz-adv-x="1434" d="M1323 421Q1323 330 1293 253T1206 120T1065 32T875 0H464V1311H51V1434H597V811H897Q992 811 1070 787T1205 715T1292 593T1323 421ZM1184 412Q1184 557 1100 623T851 690H597V121H854Q937 121 999 142T1102 201T1163 293T1184 412Z"/><glyph unicode="Ы" horiz-adv-x="1573" d="M1254 0V1434H1387V0H1254ZM1045 421Q1045 329 1015 252T927 118T786 31T597 0H186V1434H319V811H618Q714 811 793 787T928 714T1014 592T1045 421ZM905 412Q905 557 821 623T572 690H319V121H575Q659 121 721 142T824 201T885 292T905 412Z"/><glyph unicode="Ь" horiz-adv-x="1157" d="M1045 421Q1045 329 1015 252T927 118T786 31T597 0H186V1434H319V811H618Q714 811 793 787T928 714T1014 592T1045 421ZM905 412Q905 557 821 623T572 690H319V121H575Q659 121 721 142T824 201T885 292T905 412Z"/><glyph unicode="Э" horiz-adv-x="1261" d="M1160 703Q1160 545 1111 412T972 182T758 31T484 -24Q422 -24 369 -18T271 -2T186 22T114 52V183Q186 142 278 119T483 96Q590 96 685 131T852 237T968 412T1020 655H350V777H1018Q1007 902 965 1005T851 1182T681 1296T459 1337Q356 1337 270 1315T114 1260V1396Q180 1421 266 1439T463 1458Q611 1458 738 1408T959 1261T1106 1024T1160 703Z"/><glyph unicode="Ю" horiz-adv-x="2036" d="M1935 737Q1935 553 1888 411T1754 173T1549 26T1284 -24Q1135 -24 1017 29T817 177T690 402T645 685H319V0H186V1434H319V806H650Q663 952 713 1072T847 1278T1047 1411T1309 1458Q1452 1458 1567 1405T1764 1257T1890 1029T1935 737ZM1796 717Q1796 869 1761 985T1660 1179T1503 1297T1296 1337Q1182 1337 1088 1294T926 1171T821 975T784 717Q784 572 818 457T917 261T1074 139T1282 96Q1399 96 1494 136T1656 256T1759 451T1796 717Z"/><glyph unicode="Я" horiz-adv-x="1181" d="M58 0L299 444Q323 489 345 524T389 586T436 632T489 663V667Q413 684 353 718T250 802T184 916T161 1056Q161 1150 196 1221T291 1339T425 1410T582 1434H995V0H862V624H704Q659 624 623 614T554 579T492 513T430 411L214 0H58ZM613 1312Q461 1312 381 1241T300 1044Q300 975 323 920T389 826T492 766T624 745H862V1312H613Z"/><glyph unicode="а" horiz-adv-x="1026" d="M755 0V182H751Q701 84 615 30T419 -24Q345 -24 286 -3T185 56T121 149T98 268Q98 407 184 489T444 597L755 642Q755 937 526 937Q347 937 194 806V946Q226 969 266 987T352 1019T444 1040T537 1048Q708 1048 795 952T883 666V0H755ZM491 497Q422 487 373 472T292 432T245 369T230 276Q230 235 244 200T286 140T353 100T443 86Q511 86 568 112T666 184T731 294T755 433V534L491 497Z"/><glyph unicode="б" horiz-adv-x="1156" d="M1062 492Q1062 389 1033 296T946 131T802 18T600 -24Q484 -24 396 19T247 144T157 345T126 616Q126 861 170 1025T291 1276Q333 1324 382 1354T490 1405T619 1439T772 1468Q817 1476 860 1487T948 1524V1398Q927 1384 892 1372T811 1352Q761 1344 713 1336T622 1318T542 1298T478 1274Q389 1233 334 1120T264 805H268Q294 849 330 884T412 946T510 986T624 1000Q730 1000 812 962T949 855T1033 693T1062 492ZM927 478Q927 571 905 646T841 775T738 857T597 886Q542 886 492 871T400 826T324 757T263 667Q263 641 263 608T262 543Q262 453 283 370T347 224T454 124T605 86Q682 86 741 117T842 201T905 325T927 478Z"/><glyph unicode="в" horiz-adv-x="1033" d="M933 294Q933 231 909 178T842 85T740 23T611 0H165V1024H582Q659 1024 717 1006T814 954T873 876T893 776Q893 679 843 616T699 532Q816 518 874 456T933 294ZM763 757Q763 791 752 819T718 868T657 900T568 912H293V582H546Q605 582 646 595T713 631T751 687T763 757ZM803 293Q803 333 790 365T747 421T671 457T560 470H293V112H588Q696 112 749 160T803 293Z"/><glyph unicode="г" horiz-adv-x="739" d="M293 912V0H165V1024H699V912H293Z"/><glyph unicode="д" horiz-adv-x="1097" d="M933 -321V0H143V-321H31V111H122Q188 207 238 314T323 537T375 775T395 1024H889V111H1044V-321H933ZM761 912H508Q493 701 433 496T260 111H761V912Z"/><glyph unicode="е" horiz-adv-x="1052" d="M226 489Q227 395 251 320T320 193T429 114T575 86Q748 86 902 207V81Q755 -24 546 -24Q443 -24 359 12T216 116T125 285T93 513Q93 628 128 726T225 895T372 1007T558 1048Q657 1048 733 1014T860 915T939 759T966 553V489H226ZM834 601Q831 761 758 849T555 937Q490 937 435 914T337 848T268 742T229 601H834Z"/><glyph unicode="ж" horiz-adv-x="1445" d="M1258 0L788 504H784V0H660V504H656L186 0H12L522 526L36 1024H200L656 540H660V1024H784V540H788L1245 1024H1410L922 526L1433 0H1258Z"/><glyph unicode="з" horiz-adv-x="924" d="M835 283Q835 218 810 162T731 65T597 -1T405 -25Q358 -25 312 -21T225 -8T147 11T83 36V164Q152 126 234 107T401 87Q485 87 543 101T638 141T690 202T706 280Q706 384 624 428T389 472H269V583H380Q521 583 590 627T659 766Q659 842 597 889T412 937Q333 937 254 917T103 861V983Q175 1011 257 1030T425 1049Q520 1049 588 1029T701 974T767 889T789 780Q789 686 734 622T577 537V532Q637 528 685 508T766 455T817 378T835 283Z"/><glyph unicode="и" horiz-adv-x="1159" d="M874 0V836Q867 825 860 813T846 791L282 0H165V1024H286V196Q291 210 300 227T324 265L872 1024H994V0H874Z"/><glyph unicode="й" horiz-adv-x="1159" d="M874 0V836Q867 825 860 813T846 791L282 0H165V1024H286V196Q291 210 300 227T324 265L872 1024H994V0H874ZM838 1300Q884 1300 924 1315T994 1357T1044 1420T1068 1498H1198Q1189 1436 1161 1382T1086 1289T978 1227T837 1204Q759 1204 698 1226T593 1288T524 1382T491 1498H621Q625 1454 640 1418T683 1355T748 1315T838 1300Z"/><glyph unicode="к" horiz-adv-x="954" d="M763 0L297 497H293V0H165V1024H293V545H297L749 1024H916L431 527L943 0H763Z"/><glyph unicode="л" horiz-adv-x="1052" d="M760 0V912H491Q473 674 442 500T364 211T251 42T96 -14Q76 -14 57 -11T23 -3V108Q36 102 54 99T89 95Q150 95 197 154T280 331T341 622T382 1024H887V0H760Z"/><glyph unicode="м" horiz-adv-x="1369" d="M1078 0V864Q1075 856 1068 836T1051 789T1030 733T1008 676L742 0H631L349 676Q342 693 333 718T313 770T294 822T279 864V0H165V1024H324L615 335Q624 314 634 287T655 233T674 180T689 139Q694 151 702 174T720 224T742 279T762 331L1039 1024H1204V0H1078Z"/><glyph unicode="н" horiz-adv-x="1149" d="M856 0V477H293V0H165V1024H293V588H856V1024H984V0H856Z"/><glyph unicode="о" horiz-adv-x="1174" d="M584 -24Q470 -24 380 14T225 121T127 288T93 503Q93 631 129 732T231 903T392 1011T602 1048Q713 1048 802 1012T953 906T1048 738T1081 513Q1081 393 1047 295T948 125T792 15T584 -24ZM594 937Q510 937 442 908T326 824T251 688T225 505Q225 409 251 332T324 200T440 116T592 86Q678 86 744 114T856 197T925 331T949 511Q949 718 857 827T594 937Z"/><glyph unicode="п" horiz-adv-x="1149" d="M856 0V912H293V0H165V1024H984V0H856Z"/><glyph unicode="р" horiz-adv-x="1175" d="M293 165V-471H165V1024H293V828H297Q354 935 449 991T665 1048Q763 1048 840 1013T971 912T1053 754T1082 545Q1082 418 1050 314T958 134T813 18T620 -24Q404 -24 297 165H293ZM293 426Q293 356 316 295T382 187T483 113T615 86Q692 86 754 118T859 211T926 356T950 546Q950 636 928 708T866 832T768 910T639 937Q559 937 495 908T386 827T317 708T293 562V426Z"/><glyph unicode="с" horiz-adv-x="927" d="M846 46Q732 -23 570 -25Q460 -26 372 13T222 121T127 285T94 491Q94 606 129 707T231 884T395 1004T617 1048Q744 1048 849 999V863Q737 937 607 937Q516 937 445 903T326 809T252 670T226 501Q226 419 247 344T313 212T426 120T586 86Q730 86 846 172V46Z"/><glyph unicode="т" horiz-adv-x="798" d="M464 912V0H336V912H28V1024H771V912H464Z"/><glyph unicode="у" horiz-adv-x="959" d="M462 -186Q402 -336 324 -408T135 -481Q80 -481 42 -468V-348Q64 -356 86 -360T132 -364Q195 -364 241 -325T322 -205L411 5L17 1024H159L452 213Q458 197 463 177T474 136H479Q484 153 488 170T501 209L812 1024H947L462 -186Z"/><glyph unicode="ф" horiz-adv-x="1366" d="M1273 503Q1273 388 1236 294T1133 131T977 26T779 -12H743V-481H623V-12H589Q480 -12 389 26T232 132T130 295T93 503Q93 624 129 722T230 890T387 998T590 1036H623V1458H743V1036H775Q887 1036 978 998T1135 890T1237 722T1273 503ZM1141 505Q1141 607 1114 685T1039 816T924 897T775 925H743V99H768Q851 99 920 126T1038 206T1114 334T1141 505ZM623 925H591Q510 925 443 898T328 817T252 685T225 505Q225 411 252 336T328 208T446 127T599 99H623V925Z"/><glyph unicode="х" horiz-adv-x="902" d="M526 504L862 0H708L500 339Q488 358 476 378T450 421H446Q441 411 431 395T405 353L181 0H30L376 501L41 1024H190L403 665Q419 638 431 617T451 581H455Q468 600 479 619T502 659L728 1024H872L526 504Z"/><glyph unicode="ц" horiz-adv-x="1191" d="M1026 -373V0H165V1024H293V111H856V1024H984V111H1138V-373H1026Z"/><glyph unicode="ч" horiz-adv-x="1114" d="M821 0V429Q727 378 642 352T473 326Q397 326 337 347T234 411T170 523T147 684V1024H276V692Q276 634 287 588T323 509T388 459T485 441Q571 441 654 466T821 536V1024H949V0H821Z"/><glyph unicode="ш" horiz-adv-x="1588" d="M165 0V1024H293V112H730V1024H858V112H1295V1024H1423V0H165Z"/><glyph unicode="щ" horiz-adv-x="1632" d="M1465 -373V0H165V1024H293V111H730V1024H858V111H1295V1024H1423V111H1579V-373H1465Z"/><glyph unicode="ъ" horiz-adv-x="1170" d="M1087 313Q1087 236 1061 178T991 80T890 20T768 0H345V912H28V1024H473V617H757Q833 617 894 597T998 537T1064 442T1087 313ZM955 313Q955 401 900 453T732 505H473V112H734Q792 112 833 126T902 167T942 230T955 313Z"/><glyph unicode="ы" horiz-adv-x="1399" d="M1107 0V1024H1234V0H1107ZM907 313Q907 237 881 179T811 81T710 21T588 0H165V1024H293V617H577Q653 617 714 597T818 537T884 442T907 313ZM775 313Q775 401 720 453T552 505H293V112H554Q612 112 653 126T722 167T762 230T775 313Z"/><glyph unicode="ь" horiz-adv-x="990" d="M907 313Q907 237 881 179T811 81T710 21T588 0H165V1024H293V617H577Q653 617 714 597T818 537T884 442T907 313ZM775 313Q775 401 720 453T552 505H293V112H554Q612 112 653 126T722 167T762 230T775 313Z"/><glyph unicode="э" horiz-adv-x="935" d="M842 507Q842 391 808 294T711 126T558 16T357 -24Q269 -24 203 -6T88 42V168Q138 130 206 108T356 86Q431 86 494 112T604 186T678 304T709 458H239V568H709Q703 649 677 717T606 834T495 910T344 937Q268 937 205 918T96 866V992Q144 1017 211 1032T349 1048Q465 1048 556 1011T711 905T808 735T842 507Z"/><glyph unicode="ю" horiz-adv-x="1628" d="M1535 513Q1535 398 1505 300T1416 129T1270 17T1068 -24Q959 -24 875 13T734 117T645 276T611 477H293V0H165V1024H293V588H613Q624 704 665 790T769 933T913 1019T1085 1048Q1190 1048 1273 1012T1415 908T1504 740T1535 513ZM1404 511Q1404 726 1319 831T1076 937Q917 937 830 828T742 507Q742 408 763 330T827 198T932 115T1076 86Q1159 86 1221 115T1323 199T1384 333T1404 511Z"/><glyph unicode="я" horiz-adv-x="1009" d="M714 0V435H561Q535 435 508 426T455 397T404 345T357 264L233 0H82L232 300Q262 360 301 401T392 465Q270 480 208 552T146 734Q146 794 167 846T233 938T345 1001T504 1024H844V0H714ZM714 914H507Q394 914 338 868T281 733Q281 635 339 590T501 545H714V914Z"/><glyph unicode="ё" horiz-adv-x="1052" d="M226 489Q227 395 251 320T320 193T429 114T575 86Q748 86 902 207V81Q755 -24 546 -24Q443 -24 359 12T216 116T125 285T93 513Q93 628 128 726T225 895T372 1007T558 1048Q657 1048 733 1014T860 915T939 759T966 553V489H226ZM834 601Q831 761 758 849T555 937Q490 937 435 914T337 848T268 742T229 601H834ZM719 1203Q686 1203 661 1226T635 1288Q635 1325 659 1348T717 1372Q753 1372 779 1348T805 1288Q805 1252 781 1228T719 1203ZM361 1203Q343 1203 328 1209T300 1227T281 1254T274 1288Q274 1325 299 1348T358 1372Q376 1372 392 1366T420 1348T439 1322T446 1288Q446 1252 421 1228T361 1203Z"/><glyph unicode="ђ" horiz-adv-x="1167" d="M1034 392Q1034 -16 926 -215T592 -414Q567 -414 538 -409T480 -392V-268Q509 -281 539 -289T594 -298Q757 -298 830 -128T903 389Q903 525 884 623T828 786T736 880T609 911Q550 911 496 886T399 813T332 700T307 550V0H179V1216H45V1325H179V1516H307V1325H669V1216H307V819H311Q336 864 368 901T441 966T530 1008T636 1023Q738 1023 813 981T937 859T1010 662T1034 392Z"/><glyph unicode="ѓ" horiz-adv-x="739" d="M293 912V0H165V1024H699V912H293ZM392 1203H284L512 1531H647L392 1203Z"/><glyph unicode="є" horiz-adv-x="932" d="M845 45Q797 15 729 -4T572 -24Q461 -24 373 13T222 119T127 283T93 496Q93 622 130 724T234 898T397 1009T609 1048Q678 1048 736 1035T842 999V866Q796 898 736 917T599 937Q519 937 454 910T340 835T263 718T227 568H696V458H225Q229 373 256 304T329 187T439 112T578 86Q659 86 726 110T845 173V45V45Z"/><glyph unicode="ѕ" horiz-adv-x="832" d="M107 184Q136 161 170 143T240 112T312 93T382 86Q610 86 610 257Q610 296 594 324T548 376T476 420T381 462Q310 491 259 521T175 586T126 664T110 761Q110 829 139 882T219 972T334 1028T472 1048Q605 1048 704 998V863Q589 937 456 937Q408 937 369 925T301 891T258 839T242 771Q242 733 254 705T291 653T357 609T456 564Q530 534 584 505T673 441T725 364T742 265Q742 196 714 142T635 51T516 -5T368 -24Q213 -24 107 41V184Z"/><glyph unicode="і" horiz-adv-x="458" d="M228 1283Q191 1283 164 1309T137 1375Q137 1414 164 1439T228 1465Q247 1465 264 1459T293 1440T313 1412T321 1375Q321 1356 314 1339T294 1310T265 1290T228 1283ZM165 0V1024H293V0H165Z"/><glyph unicode="ї" horiz-adv-x="458" d="M165 0V1024H293V0H165ZM409 1203Q376 1203 351 1226T325 1288Q325 1325 349 1348T407 1372Q443 1372 469 1348T495 1288Q495 1252 471 1228T409 1203ZM51 1203Q33 1203 18 1209T-10 1227T-29 1254T-36 1288Q-36 1325 -11 1348T48 1372Q66 1372 82 1366T110 1348T129 1322T136 1288Q136 1252 111 1228T51 1203Z"/><glyph unicode="ј" horiz-adv-x="458" d="M293 36Q293 -218 203 -350T-84 -482Q-154 -482 -225 -448V-324Q-147 -370 -77 -370Q165 -370 165 14V1024H293V36ZM228 1283Q191 1283 164 1309T137 1375Q137 1414 164 1439T228 1465Q247 1465 264 1459T293 1440T313 1412T321 1375Q321 1356 314 1339T294 1310T265 1290T228 1283Z"/><glyph unicode="љ" horiz-adv-x="1585" d="M1502 313Q1502 238 1477 180T1407 82T1306 21T1183 0H760V912H491Q473 673 442 499T363 210T250 41T96 -14Q76 -14 57 -11T23 -3V108Q36 102 54 99T89 95Q153 95 201 160T284 346T343 638T382 1024H887V617H1172Q1249 617 1310 597T1413 537T1479 442T1502 313ZM1370 313Q1370 401 1315 452T1147 504H887V111H1149Q1207 111 1248 125T1317 166T1357 230T1370 313Z"/><glyph unicode="њ" horiz-adv-x="1642" d="M1559 308Q1559 232 1533 175T1464 78T1363 20T1241 0H817V494H293V0H165V1024H293V607H817V1024H945V607H1229Q1306 607 1367 587T1471 529T1536 436T1559 308ZM1427 308Q1427 395 1372 444T1204 494H945V112H1206Q1264 112 1305 126T1374 165T1414 227T1427 308Z"/><glyph unicode="ћ" horiz-adv-x="1141" d="M870 0V576Q870 748 808 830T616 912Q565 912 510 891T410 826T336 713T307 546V0H179V1216H45V1325H179V1516H307V1325H669V1216H307V822H311Q365 915 451 969T655 1024Q828 1024 913 917T998 608V0H870Z"/><glyph unicode="ќ" horiz-adv-x="954" d="M763 0L297 497H293V0H165V1024H293V545H297L749 1024H916L431 527L943 0H763ZM532 1203H424L652 1531H787L532 1203Z"/><glyph unicode="ў" horiz-adv-x="959" d="M462 -186Q402 -336 324 -408T135 -481Q80 -481 42 -468V-348Q64 -356 86 -360T132 -364Q195 -364 241 -325T322 -205L411 5L17 1024H159L452 213Q458 197 463 177T474 136H479Q484 153 488 170T501 209L812 1024H947L462 -186ZM749 1300Q795 1300 835 1315T905 1357T955 1420T979 1498H1109Q1100 1436 1072 1382T997 1289T889 1227T748 1204Q670 1204 609 1226T504 1288T435 1382T402 1498H532Q536 1454 551 1418T594 1355T659 1315T749 1300Z"/><glyph unicode="џ" horiz-adv-x="1149" d="M632 0V-373H519V0H165V1024H293V111H856V1024H984V0H632Z"/><glyph unicode="Ґ" horiz-adv-x="939" d="M319 1312V0H186V1434H775V1698H895V1312H319Z"/><glyph unicode="ґ" horiz-adv-x="771" d="M293 912V0H165V1024H598V1294H712V912H293Z"/><glyph unicode="‐" horiz-adv-x="817" d="M144 530V640H691V530H144Z"/><glyph unicode="–" horiz-adv-x="1024" d="M0 530V640H1024V530H0Z"/><glyph unicode="—" horiz-adv-x="2048" d="M0 530V640H2048V530H0Z"/><glyph unicode="‘" horiz-adv-x="453" d="M237 998H109L256 1446H353L237 998Z"/><glyph unicode="’" horiz-adv-x="453" d="M207 998H111L229 1446H355L207 998Z"/><glyph unicode="‚" horiz-adv-x="453" d="M178 -226H83L200 218H326L178 -226Z"/><glyph unicode="“" horiz-adv-x="729" d="M511 998H385L533 1446H629L511 998ZM237 998H109L256 1446H353L237 998Z"/><glyph unicode="”" horiz-adv-x="729" d="M484 998H387L502 1446H631L484 998ZM207 998H111L229 1446H355L207 998Z"/><glyph unicode="„" horiz-adv-x="729" d="M455 -228H358L474 218H602L455 -228ZM178 -228H83L200 218H326L178 -228Z"/><glyph unicode="†" horiz-adv-x="762" d="M716 913L449 943L414 229H358L323 943L46 913V1043L353 1023L318 1433H454L419 1023L716 1043V913Z"/><glyph unicode="‡" horiz-adv-x="762" d="M716 519L419 544L454 229H318L353 544L46 519V649L323 624L371 831L323 1038L46 1013V1143L353 1118L318 1433H454L419 1118L716 1143V1013L449 1038L401 831L449 624L716 649V519Z"/><glyph unicode="•" horiz-adv-x="821" d="M164 688Q164 739 183 784T236 862T314 915T410 935Q461 935 506 916T584 863T637 784T657 688Q657 637 638 592T585 514T506 462T410 442Q359 442 314 461T236 514T184 592T164 688Z"/><glyph unicode="…" horiz-adv-x="1432" d="M1195 -17Q1155 -17 1128 10T1101 79Q1101 119 1128 147T1195 175Q1215 175 1232 168T1262 147T1283 116T1291 79Q1291 37 1263 10T1195 -17ZM714 -17Q674 -17 646 10T618 79Q618 99 625 116T646 146T677 167T714 175Q733 175 750 167T781 146T802 116T810 79Q810 38 782 11T714 -17ZM234 -17Q194 -17 167 10T140 79Q140 119 167 147T234 175Q254 175 271 168T301 147T322 116T330 79Q330 38 302 11T234 -17Z"/><glyph unicode="‰" horiz-adv-x="2451" d="M410 722Q334 722 273 748T170 821T105 935T82 1082Q82 1171 107 1241T177 1359T285 1433T425 1459Q500 1459 560 1434T662 1362T726 1248T749 1094Q749 1013 725 945T656 828T550 750T410 722ZM421 1363Q369 1363 327 1344T255 1290T210 1203T194 1086Q194 961 252 889T416 817Q469 817 510 836T579 892T622 979T637 1093Q637 1224 579 1293T421 1363ZM431 -21H310L1202 1433H1322L431 -21ZM2039 -23Q1963 -23 1903 3T1800 76T1735 190T1712 337Q1712 425 1737 495T1807 614T1915 689T2055 715Q2130 715 2190 690T2291 617T2355 502T2378 348Q2378 267 2354 199T2286 82T2179 5T2039 -23ZM2051 617Q1945 617 1885 545T1825 340Q1825 213 1883 143T2045 72Q2151 72 2209 145T2268 348Q2268 480 2210 548T2051 617ZM1229 -23Q1154 -23 1093 3T990 76T924 189T901 337Q901 425 926 495T996 614T1104 689T1244 715Q1319 715 1379 690T1481 618T1545 503T1568 348Q1568 267 1544 199T1475 82T1369 5T1229 -23ZM1240 617Q1188 617 1146 598T1075 544T1029 457T1013 340Q1013 278 1028 228T1072 144T1142 91T1235 72Q1287 72 1328 91T1397 146T1441 233T1457 348Q1457 480 1399 548T1240 617Z"/><glyph unicode="‹" horiz-adv-x="641" d="M397 200L109 536L397 880H531L244 536L531 200H397Z"/><glyph unicode="›" horiz-adv-x="641" d="M110 200L397 536L110 880H244L532 536L244 200H110Z"/><glyph unicode="€" horiz-adv-x="1080" d="M988 51Q856 -24 710 -24Q612 -24 531 9T388 106T285 267T223 491H90V603H212Q210 623 209 645T208 692Q208 751 214 814H90V926H230Q253 1051 300 1150T415 1317T567 1422T749 1458Q880 1458 988 1403V1271Q873 1346 739 1346Q672 1346 612 1318T502 1235T416 1103T360 926H880V814H344Q342 793 341 769T340 715Q340 687 340 659T343 603H880V491H357Q390 290 485 189T721 87Q850 87 988 177V51Z"/><glyph unicode="№" horiz-adv-x="2309" d="M2202 1032Q2202 942 2178 864T2104 729T1984 638T1817 605Q1724 605 1653 636T1535 722T1463 855T1438 1023Q1438 1132 1467 1213T1549 1347T1674 1426T1831 1453Q1918 1453 1987 1425T2104 1343T2177 1211T2202 1032ZM1470 334V439H2170V334H1470ZM1120 0L368 1152Q354 1173 339 1198T315 1241H310Q313 1216 314 1174T315 1081V0H186V1434H333L1049 334Q1069 302 1091 268T1131 202H1135Q1133 228 1131 271T1129 366V1434H1258V0H1120ZM2082 1029Q2082 1191 2015 1269T1825 1347Q1700 1347 1629 1264T1557 1025Q1557 877 1624 795T1821 712Q1952 712 2017 796T2082 1029Z"/><glyph unicode="™" horiz-adv-x="1584" d="M1291 772V1277H1287L1064 772H1000L785 1277H781V772H689V1434H810L1034 913H1038L1269 1434H1386V772H1291ZM383 1346V772H286V1346H73V1434H599V1346H383Z"/><glyph unicode="﴾" horiz-adv-x="598" d="M451 -326Q145 28 145 546Q145 1077 453 1434H576Q263 1064 263 548Q263 48 573 -326H451Z"/><glyph unicode="﴿" horiz-adv-x="598" d="M25 -326Q335 48 335 548Q335 1064 22 1434H145Q453 1077 453 546Q453 28 147 -326H25Z"/></font>
</defs>
</svg>
